# xmcd
#
# Track frame offsets:
# 150
# 36235
# 48230
# 66322
# 80721
# 96458
# 114148
# 128688
# 151002
# 170712
# 180697
# 197705
# 218430
# 226728
# 243721
# 262984
# 276450
# 294730
# 310966
# 328913
#
# Disc length: 4648 seconds
#
#
# Revision: 0
# Processed by: cddbd v1.5.2PL0 Copyright (c) Steve Scherf et al.
# Submitted via: FreeRIP 2.942 
#
DISCID=27122614
DTITLE=Janis Joplin - Coletânea
DYEAR=1997
DGENRE=Blues
TTITLE0=Ball and chain
TTITLE1=Bye,bye baby
TTITLE2=Cry baby
TTITLE3=Down on me
TTITLE4=Get in wile you can
TTITLE5=Half moon
TTITLE6=I can't stand the rain
TTITLE7=I need a man
TTITLE8=Kozmic blues
TTITLE9=Mary Jane
TTITLE10=Maybe
TTITLE11=Me and Bob McGee
TTITLE12=Mercedes Benz
TTITLE13=Move over
TTITLE14=Piece of my heart
TTITLE15=Somebody to love
TTITLE16=Summertime
TTITLE17=The Rose
TTITLE18=Try (Just a little bit harder)
TTITLE19=Turtle blues
EXTD=Caetano
EXTT0=
EXTT1=
EXTT2=
EXTT3=
EXTT4=
EXTT5=
EXTT6=
EXTT7=
EXTT8=
EXTT9=
EXTT10=
EXTT11=
EXTT12=
EXTT13=
EXTT14=
EXTT15=
EXTT16=
EXTT17=
EXTT18=
EXTT19=
PLAYORDER=
